<?xml version="1.0" encoding="utf-8"?>
<!-- Generator: Adobe Illustrator 25.2.3, SVG Export Plug-In . SVG Version: 6.00 Build 0)  -->
<svg version="1.1" id="Calque_1" xmlns="http://www.w3.org/2000/svg" xmlns:xlink="http://www.w3.org/1999/xlink" x="0px" y="0px"
	 viewBox="0 0 85.04 85.04" style="enable-background:new 0 0 85.04 85.04;" xml:space="preserve">
<style type="text/css">
	.st0{fill:#D8D8D8;}
	.st1{fill:#FFFFFF;}
</style>
<g>
	<rect class="st0" width="85.04" height="85.04"/>
	<path class="st1" d="M4.25,38.27V6.37c0-0.28,0.05-0.56,0.16-0.81c0.1-0.26,0.26-0.49,0.46-0.69c0.2-0.2,0.43-0.35,0.69-0.46
		C5.83,4.3,6.1,4.25,6.37,4.25h72.28c0.28,0,0.56,0.05,0.81,0.16c0.26,0.1,0.49,0.26,0.69,0.46s0.36,0.43,0.46,0.69
		c0.1,0.26,0.16,0.54,0.16,0.81v31.89c0,0.28-0.05,0.56-0.16,0.81c-0.11,0.26-0.26,0.49-0.46,0.69s-0.43,0.36-0.69,0.46
		c-0.26,0.1-0.54,0.16-0.81,0.16H6.37c-0.28,0-0.56-0.05-0.81-0.16c-0.26-0.1-0.49-0.26-0.69-0.46s-0.36-0.43-0.46-0.69
		C4.3,38.82,4.25,38.55,4.25,38.27z"/>
	<path class="st1" d="M4.25,78.67v-31.9c0-0.28,0.05-0.56,0.16-0.81c0.1-0.26,0.26-0.49,0.46-0.69c0.2-0.2,0.43-0.36,0.69-0.46
		c0.26-0.1,0.54-0.16,0.81-0.16h31.89c0.28,0,0.56,0.05,0.81,0.16c0.26,0.1,0.49,0.26,0.69,0.46c0.2,0.2,0.36,0.43,0.46,0.69
		s0.16,0.54,0.16,0.81v31.89c0,0.28-0.05,0.56-0.16,0.81c-0.1,0.26-0.26,0.49-0.46,0.69s-0.43,0.36-0.69,0.46
		c-0.26,0.1-0.54,0.16-0.81,0.16H6.37c-0.28,0-0.56-0.05-0.81-0.16c-0.26-0.11-0.49-0.26-0.69-0.46s-0.36-0.43-0.46-0.69
		C4.3,79.21,4.25,78.94,4.25,78.67z"/>
	<path class="st1" d="M44.65,78.67v-31.9c0-0.28,0.05-0.56,0.16-0.81c0.1-0.26,0.26-0.49,0.46-0.69c0.2-0.2,0.43-0.36,0.69-0.46
		c0.26-0.1,0.54-0.16,0.81-0.16h31.89c0.28,0,0.56,0.05,0.81,0.16c0.25,0.1,0.49,0.26,0.69,0.46c0.2,0.2,0.36,0.43,0.46,0.69
		c0.1,0.26,0.16,0.54,0.16,0.81v31.89c0,0.28-0.05,0.56-0.16,0.81c-0.11,0.26-0.26,0.49-0.46,0.69s-0.43,0.36-0.69,0.46
		c-0.26,0.1-0.54,0.16-0.81,0.16H46.77c-0.28,0-0.56-0.05-0.81-0.16c-0.26-0.11-0.49-0.26-0.69-0.46c-0.2-0.2-0.36-0.43-0.46-0.69
		C44.7,79.21,44.65,78.94,44.65,78.67z"/>
</g>
</svg>
