<?xml version="1.0" encoding="utf-8"?>
<!-- Generator: Adobe Illustrator 25.2.3, SVG Export Plug-In . SVG Version: 6.00 Build 0)  -->
<svg version="1.1" id="Composant_1_1" xmlns="http://www.w3.org/2000/svg" xmlns:xlink="http://www.w3.org/1999/xlink" x="0px"
	 y="0px" viewBox="0 0 283.46 195.59" style="enable-background:new 0 0 283.46 195.59;" xml:space="preserve">
<style type="text/css">
	.st0{fill:#FFFFFF;}
</style>
<g>
	<path id="forme" class="st0" d="M141.73,113.37c-31.27,0.04-56.65-25.27-56.69-56.54c-0.02-13.31,4.65-26.2,13.19-36.4
		c0.13-0.21,0.29-0.39,0.47-0.55c5.23-6.1,11.69-11.04,18.97-14.47c28.3-13.32,62.04-1.18,75.36,27.12
		c9.32,19.79,6.41,43.17-7.48,60.07c-0.13,0.22-0.29,0.41-0.47,0.57c-5.23,6.22-11.73,11.24-19.06,14.73
		C158.43,111.51,150.13,113.38,141.73,113.37z M162.93,61.63l-26.16,46.37c1.64,0.16,3.31,0.23,4.96,0.23
		c14.7-0.01,28.7-6.3,38.47-17.28L162.93,61.63z M94.55,77.43c6.73,15.29,20.44,26.37,36.79,29.76l16.79-29.76H94.55z M156.81,41.11
		l26.82,45.55c9.45-13.19,12.13-30.08,7.22-45.55H156.81z M132.7,41.11L132.7,41.11l-9.07,15.66l8.99,15.53h18.41l8.9-15.78
		l-9.07-15.4L132.7,41.11L132.7,41.11z M100.09,26.37c-9.66,13.24-12.44,30.29-7.48,45.93h34.08L100.09,26.37z M141.73,5.17
		c-14.54,0.01-28.41,6.17-38.17,16.95l17.1,29.52l26.76-46.16C145.52,5.28,143.63,5.17,141.73,5.17z M152.83,6.38L152.83,6.38
		l-17.16,29.6h53.24C182.29,20.93,168.89,9.94,152.83,6.38z"/>
	<g>
		<path class="st0" d="M54.06,122.02c1.53-1.18,1.67-1.74,1.19-3.55c-0.49-1.4-1.53-2.02-2.86-1.67c-2.23,0.56-4.25,1.95-5.92,3.83
			c-1.32,1.46-2.43,2.23-4.25,2.93c-10.8,4.18-26.75,8.15-26.75,21.04c-0.07,5.36,3.27,10.24,8.78,11.49
			c1.81,0.42,2.93-0.49,2.93-2.3c0-2.3-0.14-2.58-2.86-4.11c-1.67-1.04-2.72-2.93-2.72-5.37c0-7.73,10.8-10.94,18.05-13.72
			c1.19-0.49,1.74,0.07,1.25,1.25L29.47,160.2c-3.62,8.99-7.73,15.19-14.77,15.19c-5.92,0-8.64-4.32-8.64-8.08
			c0-3.13,1.95-6.97,6.06-7.94c2.44-0.56,2.93-1.25,2.93-3.69c0-1.81-1.12-2.79-2.93-2.51C5.16,154.21,0,160.13,0,167.17
			c0,7.38,5.5,14.28,14.77,14.28c6.06,0,14.49-3.06,19.86-16.23l15.19-37.28C51.07,124.88,52.74,123.07,54.06,122.02z"/>
		<path class="st0" d="M239.64,134.77c2.37,0,4.32-1.95,4.32-4.32c0-2.37-1.95-4.25-4.32-4.25c-2.37,0-4.25,1.88-4.25,4.25
			C235.39,132.82,237.27,134.77,239.64,134.77z"/>
		<path class="st0" d="M280.2,156.44c-4.74,8.08-10.24,14.98-13.8,14.98c-1.53,0-2.85-1.33,0.21-8.92l13.93-34.56
			c0.7-1.74,0.07-2.72-1.81-2.72h-1.46c-2.16,0-3.21,0.77-4.04,2.72l-5.5,13.65c-0.49,1.12-1.12,1.19-1.74,0.07
			c-0.84-1.61-2.65-3.56-6.06-3.56c-7.83,0-13.34,9.92-16.18,18.8c-4.67,7.88-10.03,14.51-13.51,14.51c-1.53,0-2.85-1.33,0.21-8.92
			l8.36-20.76c0.7-1.74,0.07-2.72-1.81-2.72h-1.46c-2.16,0-3.21,0.77-4.04,2.72l-6.05,14.99c-5.61,9.49-9.4,14.69-12.02,14.69
			c-1.12,0-2.86-0.98,0.35-8.92l3.14-7.73c0.62-1.54,0.83-2.72,0.83-3.56c0-3.69-3.76-6.34-6.61-8.71
			c-1.19-0.98-1.46-2.02-0.84-3.41l0.91-2.23c0.62-1.46,0.41-2.37-0.91-3.27l-0.49-0.35c-1.04-0.77-2.37-0.77-3.48-0.07
			c-2.23,1.4-4.18,3.9-4.18,6.41c0,0.98,0.28,1.88,0.77,2.72c1.05,1.67,1.12,2.44,0.21,4.25c-1.65,3.58-3.37,7.08-4.95,9.78
			c-0.03,0.04-0.05,0.07-0.08,0.11c-4.46,7.74-9.54,12.4-15.33,15.68c-1.04,0.56-1.53,0.07-1.11-0.98l11.91-29.4
			c0.62-1.46-0.07-2.09-1.46-1.4l-4.39,2.23c-1.6,0.84-2.23,0.63-3.06-0.9c-1.4-2.51-4.04-3.56-6.48-3.56
			c-7.38,0-12.89,9.83-15.78,18.7c-4.69,7.92-10.07,14.6-13.5,14.6c-1.82,0-2.72-1.81,0.14-8.92l8.36-20.76
			c0.62-1.46-0.07-2.09-1.46-1.4l-4.46,2.3c-1.53,0.77-2.16,0.56-3.06-0.98c-0.84-1.61-2.65-3.56-6.06-3.56
			c-7.83,0-13.34,9.92-16.18,18.8c-4.82,8.13-10.46,14.51-14.49,14.51c-1.6,0-3.21-0.98,0-8.92l8.64-21.39
			c0.63-1.53,1.46-2.09,3.07-2.09h1.95c1.4,0,2.16-0.49,2.72-1.81c0.49-1.33,0.07-1.95-1.18-1.95h-1.95c-1.46,0-1.95-0.77-1.4-2.09
			l2.09-5.22c0.69-1.74,0.07-2.72-1.82-2.72h-1.46c-2.16,0-3.21,0.77-4.04,2.72l-2.09,5.22c-0.63,1.54-1.46,2.09-3.07,2.09h-2.23
			c-1.39,0-2.16,0.49-2.72,1.81c-0.49,1.33-0.07,1.95,1.19,1.95h2.23c1.46,0,1.95,0.77,1.4,2.09l-6.31,15.6
			c-2.62,4.46-5.82,9.26-8.97,11.78c-0.98,0.77-1.6,0.42-1.4-0.77c0.21-1.12,0.28-2.3,0.28-3.55c-0.07-3.69-1.26-13.31,0.28-22.29
			c0.41-2.16-0.14-3.21-2.16-4.04l-0.35-0.14c-1.88-0.77-3.07-0.35-3.98,1.53c-2.63,5.53-6.29,12.51-9,17.11
			c-0.02,0.03-0.05,0.06-0.07,0.1c-4.74,8.08-10.24,14.98-13.8,14.98c-1.11,0-3.13-0.7,0.21-8.92l4.25-10.45
			c1.46-3.69,2.3-6.48,2.3-8.57c0-3.55-2.44-5.37-5.43-5.37c-2.3,0-5.01,0.91-7.94,3.07c-1.4,1.04-2.3,1.11-3.76,0.21l-1.33-0.84
			c-1.74-1.04-2.85-0.62-3.62,1.19l-12.33,30.72c-0.7,1.74-0.07,2.72,1.81,2.72h1.46c2.16,0,3.21-0.77,4.04-2.72l8.71-21.6
			c0.42-1.12,1.33-2.37,2.23-3.21c2.58-2.3,5.16-3.48,6.69-3.48c1.12,0,1.95,0.56,1.95,1.53c0,1.12-1.04,3.62-2.44,7.11l-2.79,6.9
			c-4.95,12.19-1.74,16.37,4.04,16.37c6.93,0,13.1-7.72,18.65-17.33c0.04-0.05,0.08-0.1,0.11-0.16c1.4-2.51,3-5.43,4.53-8.36
			c0.49-0.9,1.05-0.77,1.05,0.28c0,4.53,0.28,8.78,0.28,11.99c0,6.55-1.46,8.36-4.18,8.36c-2.65,0-3.56-2.16-6.13-0.56
			c-1.11,0.7-1.25,1.88-0.28,2.79c1.46,1.39,4.18,3,8.22,3c6.74,0,11.45-3.06,15.25-7.42c-0.39,5.48,2.48,7.42,6.64,7.42
			c5.25,0,10.08-3.86,14.3-9.27c-0.04,0.53-0.07,1.03-0.07,1.46c0,4.39,2.23,7.81,6.69,7.81c3.55,0,6.62-2.3,8.29-3.9
			c0.98-0.98,1.46-0.83,2.02,0.42c0.63,1.53,2.16,3.48,5.85,3.48c4.88,0,9.34-3.77,13.38-9.12c-0.03,0.45-0.05,0.87-0.05,1.25
			c0,4.32,2.23,7.87,6.48,7.87c2.86,0,5.01-1.67,6.27-3.07c0.56-0.56,0.84-0.35,0.56,0.35l-0.56,1.32c-0.49,1.25-1.46,2.3-2.64,2.86
			c-5.02,2.3-13.31,4.59-13.8,11.35c-0.28,3.9,2.51,6.69,7.11,6.69c7.8,0,11.7-8.36,14.42-15.19c0.56-1.53,1.32-2.37,2.79-3.06
			c6.17-2.98,13.78-7.41,20.23-18.56c0.04-0.06,0.09-0.11,0.13-0.18c1.88-3.34,3.62-6.76,5.09-9.96c0.69-1.32,1.6-1.53,2.72-0.56
			c1.18,1.11,1.88,2.02,1.88,3c0,0.28-0.07,0.98-0.62,2.37l-2.58,6.27c-4.95,11.98-1.67,16.37,3.83,16.37
			c3.84,0,7.21-2.78,10.41-6.92c-0.19,5.1,2.62,6.92,6.46,6.92c4.78,0,9.2-3.68,13.3-9.11c-0.04,0.47-0.06,0.92-0.06,1.31
			c0,4.39,2.23,7.81,6.69,7.81c3.55,0,6.62-2.3,8.29-3.9c0.98-0.98,1.46-0.83,2.02,0.42c0.63,1.53,2.16,3.48,5.85,3.48
			c7.18,0,13.44-8.15,18.81-17.49C284.38,156.51,281.38,154.42,280.2,156.44z M146.51,150.59l-4.74,11.63
			c-0.35,0.9-1.25,2.44-1.88,3.21c-1.46,1.88-4.04,4.59-6.69,4.59c-1.53,0-2.3-0.9-2.3-2.85c0-5.51,6.13-22.86,12.68-22.86
			c1.88,0,2.72,1.46,3.06,2.79C146.93,148.08,146.86,149.68,146.51,150.59z M169.17,183.96c-2.3,4.95-4.8,6.55-6.55,6.62
			c-1.25,0-2.09-0.7-2.09-1.81c0-2.65,4.04-4.74,7.38-6.06C169.1,182.21,169.66,182.78,169.17,183.96z M177.95,162.22
			c-0.35,0.9-1.25,2.44-1.88,3.21c-1.46,1.88-4.04,4.59-6.69,4.59c-1.53,0-2.3-0.9-2.3-2.85c0-5.51,6.13-22.86,12.68-22.86
			c1.88,0,2.72,1.46,3.07,2.79c0.28,0.98,0.2,2.58-0.14,3.48L177.95,162.22z M264.1,150.59l-4.74,11.63
			c-0.35,0.9-1.25,2.44-1.88,3.21c-1.46,1.88-4.04,4.59-6.69,4.59c-1.53,0-2.3-0.9-2.3-2.85c0-5.51,6.13-22.86,12.68-22.86
			c1.88,0,2.72,1.46,3.07,2.79C264.52,148.08,264.45,149.68,264.1,150.59z"/>
	</g>
</g>
</svg>
