<?xml version="1.0" encoding="utf-8"?>
<!-- Generator: Adobe Illustrator 25.2.3, SVG Export Plug-In . SVG Version: 6.00 Build 0)  -->
<svg version="1.1" id="Calque_1" xmlns="http://www.w3.org/2000/svg" xmlns:xlink="http://www.w3.org/1999/xlink" x="0px" y="0px"
	 viewBox="0 0 283.5 283.5" style="enable-background:new 0 0 283.5 283.5;" xml:space="preserve">
<style type="text/css">
	.st0{fill:#D8D8D8;}
	.st1{opacity:0.33;fill:#FFFFFF;enable-background:new    ;}
	.st2{opacity:0.33;enable-background:new    ;}
	.st3{fill:#FFFFFF;}
</style>
<g>
	<g>
		<rect y="0" class="st0" width="283.5" height="283.5"/>
	</g>
	<path class="st1" d="M210.9,55.5c1,0,1.9,0.8,1.9,1.9v13.3h13.3c1,0,1.9,0.8,1.9,1.9v3.6c0,1-0.9,1.9-1.9,1.9h-13.3v13.3
		c0,1-0.9,1.9-1.9,1.9h-3.6c-1,0-1.9-0.8-1.9-1.9V78.1h-13.3c-1,0-1.9-0.8-1.9-1.9v-3.6c0-1,0.9-1.9,1.9-1.9h13.3V57.4
		c0-1,0.9-1.9,1.9-1.9C207.2,55.5,210.9,55.5,210.9,55.5z"/>
	<path class="st1" d="M76.2,55.5c1,0,1.9,0.8,1.9,1.9v13.3h13.3c1,0,1.9,0.8,1.9,1.9v3.6c0,1-0.8,1.9-1.9,1.9H78.1v13.3
		c0,1-0.8,1.9-1.9,1.9h-3.6c-1,0-1.9-0.8-1.9-1.9V78.1H57.4c-1,0-1.9-0.8-1.9-1.9v-3.6c0-1,0.8-1.9,1.9-1.9h13.3V57.4
		c0-1,0.8-1.9,1.9-1.9C72.6,55.5,76.2,55.5,76.2,55.5z"/>
	<path class="st1" d="M72.6,227.9c-1,0-1.9-0.9-1.9-1.9v-13.3H57.4c-1,0-1.9-0.9-1.9-1.9v-3.6c0-1,0.8-1.9,1.9-1.9h13.3V192
		c0-1,0.8-1.9,1.9-1.9h3.6c1,0,1.9,0.9,1.9,1.9v13.3h13.3c1,0,1.9,0.9,1.9,1.9v3.6c0,1-0.8,1.9-1.9,1.9H78.1v13.3
		c0,1-0.8,1.9-1.9,1.9H72.6z"/>
	<path class="st1" d="M207.2,227.9c-1,0-1.9-0.9-1.9-1.9v-13.3H192c-1,0-1.9-0.9-1.9-1.9v-3.6c0-1,0.9-1.9,1.9-1.9h13.3V192
		c0-1,0.9-1.9,1.9-1.9h3.6c1,0,1.9,0.9,1.9,1.9v13.3h13.3c1,0,1.9,0.9,1.9,1.9v3.6c0,1-0.9,1.9-1.9,1.9h-13.3v13.3
		c0,1-0.9,1.9-1.9,1.9H207.2z"/>
</g>
<g class="st2">
	<path class="st3" d="M151,99.8L151,99.8l-14.3,24.7h13.8h0.1h30.5c-1.4-3.1-3.1-6-5.1-8.7c-2-2.7-4.3-5.1-6.9-7.2
		c-2.6-2.1-5.4-4-8.4-5.4C157.5,101.6,154.3,100.5,151,99.8L151,99.8z M141.7,98.8c-3.1,0-6.2,0.3-9.2,1c-2.9,0.6-5.8,1.6-8.5,2.8
		c-2.7,1.2-5.2,2.7-7.6,4.4c-2.4,1.7-4.6,3.7-6.5,5.9l14.3,24.6L146.5,99C144.9,98.9,143.3,98.8,141.7,98.8z M107,116.4
		c-2.6,3.6-4.7,7.6-6.1,11.8c-1.4,4.4-2.2,8.9-2.2,13.5c0,4.4,0.7,8.8,2,13h28.4L107,116.4L107,116.4z M134.2,128.7L134.2,128.7
		l-7.6,13l7.5,12.9h15.3l7.4-13.2l-7.6-12.8H134.2L134.2,128.7z M154.3,128.7l22.4,38c2.6-3.6,4.5-7.5,5.9-11.6
		c1.4-4.3,2.1-8.8,2.1-13.3c0-4.4-0.7-8.8-2-13H154.3z M102.4,159c1.4,3.1,3.1,6.1,5.2,8.8c2.1,2.7,4.4,5.1,7.1,7.3
		c2.6,2.2,5.5,4,8.6,5.5c3.1,1.5,6.4,2.6,9.8,3.3l14-24.8H102.4z M159.4,145.8l-21.8,38.7c1.4,0.1,2.8,0.2,4.1,0.2
		c3.1,0,6.2-0.3,9.3-1c2.9-0.7,5.8-1.6,8.6-2.9c2.7-1.2,5.3-2.8,7.7-4.5c2.4-1.8,4.6-3.8,6.5-6L159.4,145.8z M141.7,189
		c-26.1,0-47.2-21.2-47.2-47.2c0-5.6,1-11.1,2.9-16.4c1.9-5.1,4.6-9.7,8.1-13.9c0.1-0.2,0.2-0.3,0.4-0.5c2.2-2.5,4.6-4.8,7.2-6.9
		c2.7-2,5.5-3.8,8.6-5.2c3.1-1.4,6.3-2.6,9.6-3.3c3.4-0.8,6.9-1.2,10.4-1.2c26.1,0,47.2,21.2,47.2,47.2c0,5.5-1,11-2.8,16.2
		c-1.8,5-4.5,9.6-7.9,13.8c-0.1,0.2-0.2,0.3-0.4,0.5c-2.2,2.6-4.6,4.9-7.3,7c-2.7,2.1-5.6,3.9-8.6,5.3c-3.1,1.5-6.4,2.6-9.7,3.4
		C148.8,188.6,145.3,189,141.7,189z"/>
</g>
</svg>
