<?xml version="1.0" encoding="utf-8"?>
<!-- Generator: Adobe Illustrator 25.2.3, SVG Export Plug-In . SVG Version: 6.00 Build 0)  -->
<svg version="1.1" id="Calque_1" xmlns="http://www.w3.org/2000/svg" xmlns:xlink="http://www.w3.org/1999/xlink" x="0px" y="0px"
	 viewBox="0 0 79.99 79.99" style="enable-background:new 0 0 79.99 79.99;" xml:space="preserve">
<style type="text/css">
	.st0{opacity:0.5608;}
	.st1{opacity:0.6;fill:#4F91B9;}
</style>
<g>
	<path class="st0" d="M59.42,25.58c0,1.9-0.86,3.76-2.59,5.57l-0.27,0.27L41.48,47.31c-3.21,3.37-5.94,5.97-8.19,7.81
		s-3.85,2.76-4.77,2.76c-0.98,0-2.19-0.46-3.64-1.38s-2.38-1.87-2.81-2.84c-0.36-0.81-0.7-2.54-1.01-5.18s-0.48-5.49-0.48-8.57
		c0-1.68,0.7-3.23,2.1-4.65s2.95-2.14,4.64-2.14c1.61,0,2.57,1.47,2.88,4.42c0.03,0.34,0.06,0.59,0.07,0.76
		c0.26,2.26,0.56,3.84,0.9,4.74s0.81,1.34,1.39,1.34c0.24,0,0.7-0.26,1.37-0.79s1.46-1.25,2.39-2.16l15.5-15.36
		c1.3-1.3,2.47-2.29,3.49-2.95s1.9-1,2.61-1c0.54,0,0.92,0.2,1.15,0.61s0.34,1.09,0.34,2.05V25.58z"/>
	<rect class="st1" width="80" height="80"/>
</g>
</svg>
