<?xml version="1.0" encoding="utf-8"?>
<!-- Generator: Adobe Illustrator 25.2.3, SVG Export Plug-In . SVG Version: 6.00 Build 0)  -->
<svg version="1.1" id="Calque_1" xmlns="http://www.w3.org/2000/svg" xmlns:xlink="http://www.w3.org/1999/xlink" x="0px" y="0px"
	 viewBox="0 0 283.46 283.46" style="enable-background:new 0 0 283.46 283.46;" xml:space="preserve">
<style type="text/css">
	.st0{fill:#116799;}
	.st1{fill:#F0F0F0;}
	.st2{fill:#4F91B9;}
</style>
<g>
	<g>
		<rect class="st0" width="283.46" height="283.46"/>
	</g>
	<path class="st1" d="M269.29,21.26v106.3c0,0.94-0.18,1.84-0.54,2.71c-0.36,0.87-0.87,1.63-1.54,2.3s-1.43,1.18-2.3,1.54
		c-0.87,0.36-1.77,0.54-2.71,0.54h-106.3c-0.94,0-1.84-0.18-2.71-0.54c-0.87-0.36-1.63-0.87-2.3-1.54s-1.18-1.43-1.54-2.3
		c-0.36-0.87-0.54-1.77-0.54-2.71V21.26c0-0.94,0.18-1.84,0.54-2.71c0.36-0.87,0.87-1.63,1.54-2.3c0.66-0.66,1.43-1.18,2.3-1.54
		c0.87-0.36,1.77-0.54,2.71-0.54h106.3c0.94,0,1.84,0.18,2.71,0.54c0.87,0.36,1.63,0.87,2.3,1.54c0.66,0.66,1.18,1.43,1.54,2.3
		C269.11,19.42,269.29,20.32,269.29,21.26z"/>
	<path class="st1" d="M134.65,21.26v106.3c0,0.94-0.18,1.84-0.54,2.71c-0.36,0.87-0.87,1.63-1.54,2.3c-0.66,0.66-1.43,1.18-2.3,1.54
		c-0.87,0.36-1.77,0.54-2.71,0.54H21.26c-0.94,0-1.84-0.18-2.71-0.54c-0.87-0.36-1.63-0.87-2.3-1.54s-1.18-1.43-1.54-2.3
		c-0.36-0.87-0.54-1.77-0.54-2.71V21.26c0-0.94,0.18-1.84,0.54-2.71c0.36-0.87,0.87-1.63,1.54-2.3c0.66-0.66,1.43-1.18,2.3-1.54
		c0.87-0.36,1.77-0.54,2.71-0.54h106.3c0.94,0,1.84,0.18,2.71,0.54c0.87,0.36,1.63,0.87,2.3,1.54c0.66,0.66,1.18,1.43,1.54,2.3
		C134.47,19.42,134.65,20.32,134.65,21.26z"/>
	<path class="st2" d="M210.88,55.51c1.04,0,1.89,0.85,1.89,1.89v13.3h13.3c1.04,0,1.89,0.85,1.89,1.89v3.64
		c0,1.04-0.85,1.89-1.89,1.89h-13.3v13.3c0,1.04-0.85,1.89-1.89,1.89h-3.64c-1.04,0-1.89-0.85-1.89-1.89v-13.3h-13.3
		c-1.04,0-1.89-0.85-1.89-1.89v-3.64c0-1.04,0.85-1.89,1.89-1.89h13.3V57.4c0-1.04,0.85-1.89,1.89-1.89H210.88z"/>
	<path class="st2" d="M76.23,55.51c1.04,0,1.89,0.85,1.89,1.89v13.3h13.3c1.04,0,1.89,0.85,1.89,1.89v3.64
		c0,1.04-0.85,1.89-1.89,1.89h-13.3v13.3c0,1.04-0.85,1.89-1.89,1.89h-3.64c-1.04,0-1.89-0.85-1.89-1.89v-13.3H57.4
		c-1.04,0-1.89-0.85-1.89-1.89v-3.64c0-1.04,0.85-1.89,1.89-1.89h13.3V57.4c0-1.04,0.85-1.89,1.89-1.89H76.23z"/>
	<path class="st1" d="M14.17,262.2v-106.3c0-0.94,0.18-1.84,0.54-2.71c0.36-0.87,0.87-1.63,1.54-2.3c0.66-0.66,1.43-1.18,2.3-1.54
		c0.87-0.36,1.77-0.54,2.71-0.54h106.3c0.94,0,1.84,0.18,2.71,0.54c0.87,0.36,1.63,0.87,2.3,1.54c0.66,0.66,1.18,1.43,1.54,2.3
		c0.36,0.87,0.54,1.77,0.54,2.71v106.3c0,0.94-0.18,1.84-0.54,2.71c-0.36,0.87-0.87,1.63-1.54,2.3s-1.43,1.18-2.3,1.54
		c-0.87,0.36-1.77,0.54-2.71,0.54H21.26c-0.94,0-1.84-0.18-2.71-0.54c-0.87-0.36-1.63-0.87-2.3-1.54c-0.66-0.66-1.18-1.43-1.54-2.3
		C14.35,264.05,14.17,263.14,14.17,262.2z"/>
	<path class="st1" d="M148.82,262.2v-106.3c0-0.94,0.18-1.84,0.54-2.71c0.36-0.87,0.87-1.63,1.54-2.3c0.66-0.66,1.43-1.18,2.3-1.54
		c0.87-0.36,1.77-0.54,2.71-0.54h106.3c0.94,0,1.84,0.18,2.71,0.54c0.87,0.36,1.63,0.87,2.3,1.54c0.66,0.66,1.18,1.43,1.54,2.3
		c0.36,0.87,0.54,1.77,0.54,2.71v106.3c0,0.94-0.18,1.84-0.54,2.71c-0.36,0.87-0.87,1.63-1.54,2.3c-0.66,0.66-1.43,1.18-2.3,1.54
		c-0.87,0.36-1.77,0.54-2.71,0.54h-106.3c-0.94,0-1.84-0.18-2.71-0.54c-0.87-0.36-1.63-0.87-2.3-1.54c-0.66-0.66-1.18-1.43-1.54-2.3
		C149,264.05,148.82,263.14,148.82,262.2z"/>
	<path class="st2" d="M72.59,227.95c-1.04,0-1.89-0.85-1.89-1.89v-13.3H57.4c-1.04,0-1.89-0.85-1.89-1.89v-3.64
		c0-1.04,0.85-1.89,1.89-1.89h13.3v-13.3c0-1.04,0.85-1.89,1.89-1.89h3.64c1.04,0,1.89,0.85,1.89,1.89v13.3h13.3
		c1.04,0,1.89,0.85,1.89,1.89v3.64c0,1.04-0.85,1.89-1.89,1.89h-13.3v13.3c0,1.04-0.85,1.89-1.89,1.89H72.59z"/>
	<path class="st2" d="M207.23,227.95c-1.04,0-1.89-0.85-1.89-1.89v-13.3h-13.3c-1.04,0-1.89-0.85-1.89-1.89v-3.64
		c0-1.04,0.85-1.89,1.89-1.89h13.3v-13.3c0-1.04,0.85-1.89,1.89-1.89h3.64c1.04,0,1.89,0.85,1.89,1.89v13.3h13.3
		c1.04,0,1.89,0.85,1.89,1.89v3.64c0,1.04-0.85,1.89-1.89,1.89h-13.3v13.3c0,1.04-0.85,1.89-1.89,1.89H207.23z"/>
</g>
</svg>
